<?xml version="1.0" encoding="utf-8"?>
<!-- Generator: Adobe Illustrator 28.3.0, SVG Export Plug-In . SVG Version: 6.00 Build 0)  -->
<svg version="1.1" id="Layer_1" xmlns="http://www.w3.org/2000/svg" xmlns:xlink="http://www.w3.org/1999/xlink" x="0px" y="0px"
	 viewBox="0 0 50 50" style="enable-background:new 0 0 50 50;" xml:space="preserve">
<style type="text/css">
	.st0{fill:#FFFFFF;}
</style>
<path d="M47.9,26.6c-0.3-0.4-0.6-0.8-1-1.2c-0.9-1.1-2.4-2.4-2.7-3.8c-0.3-1.4,0.5-2.8,0.9-4c0.3-0.9,0.6-1.8,1-2.7
	c0.3-0.7,0.3-1.5,0-2.2c-0.2-0.3-0.5-0.6-0.8-0.8c-0.3-0.2-0.7-0.3-1.1-0.4c-1-0.2-1.9-0.4-2.9-0.6c-1-0.2-2.2-0.3-3.2-0.8
	c-1.3-0.7-1.5-1.7-2-3c-0.4-1.1-0.9-2.2-1.2-3.3c-0.1-0.4-0.5-1.6-1.6-2c-2.1-0.8-4.8,1.7-6.4,2.7C25.5,5.1,24.4,5,23,4.1
	c-1.1-0.7-2.3-1.4-3.5-2.1c-0.6-0.3-1.1-0.6-1.7-1C17.4,0.9,17,0.9,16.6,1c-0.2,0.1-0.4,0.2-0.5,0.3c-0.1,0.1-0.3,0.3-0.3,0.5
	c-0.3,0.7-0.5,1.3-0.8,1.9c-0.5,1.4-1.1,2.7-1.5,4c-0.5,1.5-1.7,2.1-3.3,2.3c-1.4,0.2-2.7,0.5-4.1,0.7C5.7,10.8,4.5,11,3.9,12
	c-0.6,1.1,0,2.2,0.3,3.3c0.6,1.5,1.6,3.5,1.5,5.1c-0.1,1.6-1.5,2.8-2.5,4c-0.5,0.6-1,1.2-1.4,1.8c-0.4,0.5-1,1.3-0.8,2.2
	c0.2,1.1,1.2,1.6,1.5,1.8C4.1,31.1,7,32.4,8,34s0.5,4.7,0.5,6.5c0,0.4-0.1,1.6,0.8,2.4c0.8,0.7,1.9,0.6,2.6,0.5
	c1.8-0.3,4.6-1.3,6.3-0.6c1.8,0.7,3.5,3.5,4.7,4.9c0.2,0.3,0.9,1.1,2,1.1c0.1,0,0.2,0,0.3,0c0.7-0.1,1.2-0.5,1.7-1.1
	c1.2-1.4,2.4-2.8,3.6-4.1c0.3-0.4,0.7-0.7,1.2-0.8s1-0.1,1.4,0c0.7,0.2,1.5,0.4,2.2,0.7l1.7,0.5c4.3,1.1,5.2,0.5,5.6,0.3
	c0.9-0.6,0.9-1.4,0.7-2.4c-0.2-1.7-0.6-3.3-1.3-4.8c-0.2-0.7-0.5-1.8-0.5-2.1c0.1-0.5,0.6-1.1,1.5-1.7c1.3-0.8,2.6-1.5,4-2.3
	c0.8-0.5,1.7-1,1.9-2C49.1,28.1,48.5,27.3,47.9,26.6"/>
<g>
	<path class="st0" d="M31.9,27.2c0,2.8-2.1,5.1-6.4,5.1c-2.4,0-4.8-0.8-6.2-2l1.1-1.9c1.1,1.1,3,1.8,5.1,1.8c2.5,0,4-1.2,4-3
		c0-1.8-1.3-2.9-4.2-2.9H24v-1.7l4.2-5.2h-8.1v-2.1h11.1V17l-4.4,5.4C30.2,22.7,31.9,24.6,31.9,27.2z"/>
</g>
</svg>
