<svg viewBox="0 0 50 50" fill="none" height="50" width="50" xmlns="http://www.w3.org/2000/svg"><path d="M47.942 26.571a74 74 0 0 1-.951-1.223c-.889-1.14-2.396-2.4-2.74-3.825-.333-1.352.481-2.776.916-4.026.313-.904.634-1.834.97-2.735a2.62 2.62 0 0 0-.046-2.222 2.56 2.56 0 0 0-.806-.796 2.65 2.65 0 0 0-1.081-.381c-.955-.179-1.93-.38-2.873-.593-1.014-.22-2.228-.334-3.187-.84-1.264-.66-1.495-1.743-1.957-2.962-.427-1.094-.865-2.222-1.233-3.339-.149-.44-.536-1.614-1.636-2.013-2.052-.76-4.792 1.69-6.424 2.66-1.35.793-2.513.759-3.88-.141-1.134-.741-2.305-1.383-3.522-2.067-.556-.304-1.128-.615-1.719-.953a1.38 1.38 0 0 0-1.198-.114c-.189.067-.361.174-.504.312a1.34 1.34 0 0 0-.322.49q-.386.994-.755 1.921c-.54 1.372-1.053 2.66-1.519 3.989-.536 1.519-1.691 2.058-3.268 2.332-1.375.235-2.74.528-4.115.714-.438.06-1.597.224-2.157 1.212-.614 1.075-.05 2.214.341 3.251.564 1.52 1.593 3.517 1.464 5.143-.13 1.626-1.527 2.837-2.47 4.03-.493.62-.955 1.215-1.448 1.759-.435.493-.99 1.257-.822 2.233.187 1.086 1.174 1.645 1.495 1.83 1.605.909 4.545 2.177 5.52 3.75s.54 4.725.453 6.518c0 .406-.078 1.644.826 2.446.822.722 1.88.623 2.6.494 1.75-.323 4.626-1.258 6.341-.59 1.805.707 3.523 3.488 4.698 4.939.227.277.912 1.14 1.996 1.14q.173.003.344-.023a2.75 2.75 0 0 0 1.652-1.053 112 112 0 0 1 3.605-4.117c.295-.387.712-.67 1.187-.807s.983-.12 1.448.047q1.091.321 2.176.654l1.711.516c4.337 1.14 5.23.547 5.566.32.944-.631.854-1.41.709-2.432a20.5 20.5 0 0 0-1.257-4.85c-.238-.653-.54-1.778-.489-2.142.07-.547.58-1.102 1.503-1.653 1.312-.782 2.643-1.52 3.966-2.279.783-.46 1.703-.983 1.886-2.001.184-1.018-.454-1.824-.994-2.523" fill="#000"></path><path d="M19.48 31.52v-1.897q0-1.752.6-2.88a4.8 4.8 0 0 1 1.704-1.824q1.128-.72 2.712-1.2l1.464-.456q.984-.312 1.68-.768a3.2 3.2 0 0 0 1.104-1.128q.384-.696.384-1.608v-.096q0-1.416-.96-2.208-.96-.816-2.52-.816-1.608 0-2.616.864-.984.864-.984 2.544v.384h-2.496v-.36q0-1.824.792-3.072a5.15 5.15 0 0 1 2.184-1.944q1.392-.672 3.12-.672t3.072.648q1.368.648 2.136 1.824.792 1.176.792 2.76v.216q0 1.632-.648 2.712a5.2 5.2 0 0 1-1.8 1.776q-1.128.696-2.616 1.176l-1.416.432q-1.128.336-1.824.744-.672.384-1.008.936-.312.552-.312 1.416v.24h9.48v2.256z" fill="#fff"></path></svg>